<svg width="390" height="68" viewBox="0 0 390 68" fill="none" xmlns="http://www.w3.org/2000/svg">
<path d="M2.87375 39.2722C-1.67975 35.7511 -0.16162 31.727 2.87375 28.709C5.90913 25.6909 27.6701 8.58864 27.6701 8.58864C38.9266 2.19765 45.9846 -0.346379 62.0813 0.0374913H364.698C375.652 1.17426 381.157 2.77002 390 7.07961V59.8955C381.021 64.0659 375.411 65.6397 364.698 67.4406H62.0813C48.5977 67.5109 41.0485 66.3907 27.6701 58.3865C27.6701 58.3865 7.42725 42.7932 2.87375 39.2722Z" fill="white"/>
<path d="M39.8159 17.6432L44.8764 9.09204H50.949L45.8885 17.6432H39.8159Z" fill="#E4F3FA"/>
<path d="M33.7432 27.2006L38.8036 18.6494H44.8762L39.8157 27.2006H33.7432Z" fill="#E4F3FA"/>
<path d="M44.8765 48.3268L39.816 39.7756H33.7434L38.8039 48.3268H44.8765Z" fill="#E4F3FA"/>
<path d="M50.9492 58.3871L45.8887 49.8359H39.8162L44.8767 58.3871H50.9492Z" fill="#E4F3FA"/>
<rect x="69.7017" y="7.58325" width="6" height="6" fill="#E4F3FA"/>
<rect x="77.2017" y="7.58325" width="6" height="6" fill="#E4F3FA"/>
<rect x="84.7017" y="7.58325" width="6" height="6" fill="#E4F3FA"/>
<rect x="92.2017" y="7.58325" width="6" height="6" fill="#E4F3FA"/>
<rect x="99.7017" y="7.58325" width="6" height="6" fill="#E4F3FA"/>
<rect x="107.202" y="7.58325" width="6" height="6" fill="#E4F3FA"/>
<rect x="114.702" y="7.58325" width="6" height="6" fill="#E4F3FA"/>
<rect x="122.202" y="7.58325" width="6" height="6" fill="#E4F3FA"/>
<rect x="129.702" y="7.58325" width="6" height="6" fill="#E4F3FA"/>
<rect x="137.202" y="7.58325" width="6" height="6" fill="#E4F3FA"/>
<rect x="144.702" y="7.58325" width="6" height="6" fill="#E4F3FA"/>
<rect x="152.202" y="7.58325" width="6" height="6" fill="#E4F3FA"/>
<rect x="69.7017" y="15.0833" width="6" height="6" fill="#E4F3FA"/>
<rect x="77.2017" y="15.0833" width="6" height="6" fill="#E4F3FA"/>
<rect x="84.7017" y="15.0833" width="6" height="6" fill="#E4F3FA"/>
<rect x="92.2017" y="15.0833" width="6" height="6" fill="#E4F3FA"/>
<rect x="99.7017" y="15.0833" width="6" height="6" fill="#E4F3FA"/>
<rect x="107.202" y="15.0833" width="6" height="6" fill="#E4F3FA"/>
<rect x="114.702" y="15.0833" width="6" height="6" fill="#E4F3FA"/>
<rect x="122.202" y="15.0833" width="6" height="6" fill="#E4F3FA"/>
<rect x="129.702" y="15.0833" width="6" height="6" fill="#E4F3FA"/>
<rect x="137.202" y="15.0833" width="6" height="6" fill="#E4F3FA"/>
<rect x="144.702" y="15.0833" width="6" height="6" fill="#E4F3FA"/>
<rect x="152.202" y="15.0833" width="6" height="6" fill="#E4F3FA"/>
<rect x="69.7017" y="22.5833" width="6" height="6" fill="#E4F3FA"/>
<rect x="77.2017" y="22.5833" width="6" height="6" fill="#E4F3FA"/>
<rect x="84.7017" y="22.5833" width="6" height="6" fill="#E4F3FA"/>
<rect x="92.2017" y="22.5833" width="6" height="6" fill="#E4F3FA"/>
<rect x="99.7017" y="22.5833" width="6" height="6" fill="#E4F3FA"/>
<rect x="107.202" y="22.5833" width="6" height="6" fill="#E4F3FA"/>
<rect x="114.702" y="22.5833" width="6" height="6" fill="#E4F3FA"/>
<rect x="122.202" y="22.5833" width="6" height="6" fill="#E4F3FA"/>
<rect x="129.702" y="22.5833" width="6" height="6" fill="#E4F3FA"/>
<rect x="137.202" y="22.5833" width="6" height="6" fill="#E4F3FA"/>
<rect x="144.702" y="22.5833" width="6" height="6" fill="#E4F3FA"/>
<rect x="152.202" y="22.5833" width="6" height="6" fill="#E4F3FA"/>
<rect x="176.984" y="7.58325" width="6" height="6" fill="#E4F3FA"/>
<rect x="184.484" y="7.58325" width="6" height="6" fill="#E4F3FA"/>
<rect x="191.984" y="7.58325" width="6" height="6" fill="#E4F3FA"/>
<rect x="199.484" y="7.58325" width="6" height="6" fill="#E4F3FA"/>
<rect x="206.984" y="7.58325" width="6" height="6" fill="#E4F3FA"/>
<rect x="214.484" y="7.58325" width="6" height="6" fill="#E4F3FA"/>
<rect x="221.984" y="7.58325" width="6" height="6" fill="#E4F3FA"/>
<rect x="229.484" y="7.58325" width="6" height="6" fill="#E4F3FA"/>
<rect x="236.984" y="7.58325" width="6" height="6" fill="#E4F3FA"/>
<rect x="244.484" y="7.58325" width="6" height="6" fill="#E4F3FA"/>
<rect x="251.984" y="7.58325" width="6" height="6" fill="#E4F3FA"/>
<rect x="259.484" y="7.58325" width="6" height="6" fill="#E4F3FA"/>
<rect x="176.984" y="15.0833" width="6" height="6" fill="#E4F3FA"/>
<rect x="184.484" y="15.0833" width="6" height="6" fill="#E4F3FA"/>
<rect x="191.984" y="15.0833" width="6" height="6" fill="#E4F3FA"/>
<rect x="199.484" y="15.0833" width="6" height="6" fill="#E4F3FA"/>
<rect x="206.984" y="15.0833" width="6" height="6" fill="#E4F3FA"/>
<rect x="214.484" y="15.0833" width="6" height="6" fill="#E4F3FA"/>
<rect x="221.984" y="15.0833" width="6" height="6" fill="#E4F3FA"/>
<rect x="229.484" y="15.0833" width="6" height="6" fill="#E4F3FA"/>
<rect x="236.984" y="15.0833" width="6" height="6" fill="#E4F3FA"/>
<rect x="244.484" y="15.0833" width="6" height="6" fill="#E4F3FA"/>
<rect x="251.984" y="15.0833" width="6" height="6" fill="#E4F3FA"/>
<rect x="259.484" y="15.0833" width="6" height="6" fill="#E4F3FA"/>
<rect x="176.984" y="22.5833" width="6" height="6" fill="#E4F3FA"/>
<rect x="184.484" y="22.5833" width="6" height="6" fill="#E4F3FA"/>
<rect x="191.984" y="22.5833" width="6" height="6" fill="#E4F3FA"/>
<rect x="199.484" y="22.5833" width="6" height="6" fill="#E4F3FA"/>
<rect x="206.984" y="22.5833" width="6" height="6" fill="#E4F3FA"/>
<rect x="214.484" y="22.5833" width="6" height="6" fill="#E4F3FA"/>
<rect x="221.984" y="22.5833" width="6" height="6" fill="#E4F3FA"/>
<rect x="229.484" y="22.5833" width="6" height="6" fill="#E4F3FA"/>
<rect x="236.984" y="22.5833" width="6" height="6" fill="#E4F3FA"/>
<rect x="244.484" y="22.5833" width="6" height="6" fill="#E4F3FA"/>
<rect x="251.984" y="22.5833" width="6" height="6" fill="#E4F3FA"/>
<rect x="259.484" y="22.5833" width="6" height="6" fill="#E4F3FA"/>
<rect x="284.266" y="7.58325" width="6" height="6" fill="#E4F3FA"/>
<rect x="291.766" y="7.58325" width="6" height="6" fill="#E4F3FA"/>
<rect x="299.266" y="7.58325" width="6" height="6" fill="#E4F3FA"/>
<rect x="306.766" y="7.58325" width="6" height="6" fill="#E4F3FA"/>
<rect x="314.266" y="7.58325" width="6" height="6" fill="#E4F3FA"/>
<rect x="321.766" y="7.58325" width="6" height="6" fill="#E4F3FA"/>
<rect x="329.266" y="7.58325" width="6" height="6" fill="#E4F3FA"/>
<rect x="336.766" y="7.58325" width="6" height="6" fill="#E4F3FA"/>
<rect x="344.266" y="7.58325" width="6" height="6" fill="#E4F3FA"/>
<rect x="351.766" y="7.58325" width="6" height="6" fill="#E4F3FA"/>
<rect x="359.266" y="7.58325" width="6" height="6" fill="#E4F3FA"/>
<rect x="366.766" y="7.58325" width="6" height="6" fill="#E4F3FA"/>
<rect x="284.266" y="15.0833" width="6" height="6" fill="#E4F3FA"/>
<rect x="291.766" y="15.0833" width="6" height="6" fill="#E4F3FA"/>
<rect x="299.266" y="15.0833" width="6" height="6" fill="#E4F3FA"/>
<rect x="306.766" y="15.0833" width="6" height="6" fill="#E4F3FA"/>
<rect x="314.266" y="15.0833" width="6" height="6" fill="#E4F3FA"/>
<rect x="321.766" y="15.0833" width="6" height="6" fill="#E4F3FA"/>
<rect x="329.266" y="15.0833" width="6" height="6" fill="#E4F3FA"/>
<rect x="336.766" y="15.0833" width="6" height="6" fill="#E4F3FA"/>
<rect x="344.266" y="15.0833" width="6" height="6" fill="#E4F3FA"/>
<rect x="351.766" y="15.0833" width="6" height="6" fill="#E4F3FA"/>
<rect x="359.266" y="15.0833" width="6" height="6" fill="#E4F3FA"/>
<rect x="366.766" y="15.0833" width="6" height="6" fill="#E4F3FA"/>
<rect x="284.266" y="22.5833" width="6" height="6" fill="#E4F3FA"/>
<rect x="291.766" y="22.5833" width="6" height="6" fill="#E4F3FA"/>
<rect x="299.266" y="22.5833" width="6" height="6" fill="#E4F3FA"/>
<rect x="306.766" y="22.5833" width="6" height="6" fill="#E4F3FA"/>
<rect x="314.266" y="22.5833" width="6" height="6" fill="#E4F3FA"/>
<rect x="321.766" y="22.5833" width="6" height="6" fill="#E4F3FA"/>
<rect x="329.266" y="22.5833" width="6" height="6" fill="#E4F3FA"/>
<rect x="336.766" y="22.5833" width="6" height="6" fill="#E4F3FA"/>
<rect x="344.266" y="22.5833" width="6" height="6" fill="#E4F3FA"/>
<rect x="351.766" y="22.5833" width="6" height="6" fill="#E4F3FA"/>
<rect x="359.266" y="22.5833" width="6" height="6" fill="#E4F3FA"/>
<rect x="366.766" y="22.5833" width="6" height="6" fill="#E4F3FA"/>
<rect x="284.266" y="38.7695" width="6" height="6" fill="#E4F3FA"/>
<rect x="291.766" y="38.7695" width="6" height="6" fill="#E4F3FA"/>
<rect x="299.266" y="38.7695" width="6" height="6" fill="#E4F3FA"/>
<rect x="306.766" y="38.7695" width="6" height="6" fill="#E4F3FA"/>
<rect x="314.266" y="38.7695" width="6" height="6" fill="#E4F3FA"/>
<rect x="321.766" y="38.7695" width="6" height="6" fill="#E4F3FA"/>
<rect x="329.266" y="38.7695" width="6" height="6" fill="#E4F3FA"/>
<rect x="336.766" y="38.7695" width="6" height="6" fill="#E4F3FA"/>
<rect x="344.266" y="38.7695" width="6" height="6" fill="#E4F3FA"/>
<rect x="351.766" y="38.7695" width="6" height="6" fill="#E4F3FA"/>
<rect x="359.266" y="38.7695" width="6" height="6" fill="#E4F3FA"/>
<rect x="366.766" y="38.7695" width="6" height="6" fill="#E4F3FA"/>
<rect x="284.266" y="46.2695" width="6" height="6" fill="#E4F3FA"/>
<rect x="291.766" y="46.2695" width="6" height="6" fill="#E4F3FA"/>
<rect x="299.266" y="46.2695" width="6" height="6" fill="#E4F3FA"/>
<rect x="306.766" y="46.2695" width="6" height="6" fill="#E4F3FA"/>
<rect x="314.266" y="46.2695" width="6" height="6" fill="#E4F3FA"/>
<rect x="321.766" y="46.2695" width="6" height="6" fill="#E4F3FA"/>
<rect x="329.266" y="46.2695" width="6" height="6" fill="#E4F3FA"/>
<rect x="336.766" y="46.2695" width="6" height="6" fill="#E4F3FA"/>
<rect x="344.266" y="46.2695" width="6" height="6" fill="#E4F3FA"/>
<rect x="351.766" y="46.2695" width="6" height="6" fill="#E4F3FA"/>
<rect x="359.266" y="46.2695" width="6" height="6" fill="#E4F3FA"/>
<rect x="366.766" y="46.2695" width="6" height="6" fill="#E4F3FA"/>
<rect x="284.266" y="53.7695" width="6" height="6" fill="#E4F3FA"/>
<rect x="291.766" y="53.7695" width="6" height="6" fill="#E4F3FA"/>
<rect x="299.266" y="53.7695" width="6" height="6" fill="#E4F3FA"/>
<rect x="306.766" y="53.7695" width="6" height="6" fill="#E4F3FA"/>
<rect x="314.266" y="53.7695" width="6" height="6" fill="#E4F3FA"/>
<rect x="321.766" y="53.7695" width="6" height="6" fill="#E4F3FA"/>
<rect x="329.266" y="53.7695" width="6" height="6" fill="#E4F3FA"/>
<rect x="336.766" y="53.7695" width="6" height="6" fill="#E4F3FA"/>
<rect x="344.266" y="53.7695" width="6" height="6" fill="#E4F3FA"/>
<rect x="351.766" y="53.7695" width="6" height="6" fill="#E4F3FA"/>
<rect x="359.266" y="53.7695" width="6" height="6" fill="#E4F3FA"/>
<rect x="366.766" y="53.7695" width="6" height="6" fill="#E4F3FA"/>
<rect x="176.984" y="38.7695" width="6" height="6" fill="#E4F3FA"/>
<rect x="184.484" y="38.7695" width="6" height="6" fill="#E4F3FA"/>
<rect x="191.984" y="38.7695" width="6" height="6" fill="#E4F3FA"/>
<rect x="199.484" y="38.7695" width="6" height="6" fill="#E4F3FA"/>
<rect x="206.984" y="38.7695" width="6" height="6" fill="#E4F3FA"/>
<rect x="214.484" y="38.7695" width="6" height="6" fill="#E4F3FA"/>
<rect x="221.984" y="38.7695" width="6" height="6" fill="#E4F3FA"/>
<rect x="229.484" y="38.7695" width="6" height="6" fill="#E4F3FA"/>
<rect x="236.984" y="38.7695" width="6" height="6" fill="#E4F3FA"/>
<rect x="244.484" y="38.7695" width="6" height="6" fill="#E4F3FA"/>
<rect x="251.984" y="38.7695" width="6" height="6" fill="#E4F3FA"/>
<rect x="259.484" y="38.7695" width="6" height="6" fill="#E4F3FA"/>
<rect x="176.984" y="46.2695" width="6" height="6" fill="#E4F3FA"/>
<rect x="184.484" y="46.2695" width="6" height="6" fill="#E4F3FA"/>
<rect x="191.984" y="46.2695" width="6" height="6" fill="#E4F3FA"/>
<rect x="199.484" y="46.2695" width="6" height="6" fill="#E4F3FA"/>
<rect x="206.984" y="46.2695" width="6" height="6" fill="#E4F3FA"/>
<rect x="214.484" y="46.2695" width="6" height="6" fill="#E4F3FA"/>
<rect x="221.984" y="46.2695" width="6" height="6" fill="#E4F3FA"/>
<rect x="229.484" y="46.2695" width="6" height="6" fill="#E4F3FA"/>
<rect x="236.984" y="46.2695" width="6" height="6" fill="#E4F3FA"/>
<rect x="244.484" y="46.2695" width="6" height="6" fill="#E4F3FA"/>
<rect x="251.984" y="46.2695" width="6" height="6" fill="#E4F3FA"/>
<rect x="259.484" y="46.2695" width="6" height="6" fill="#E4F3FA"/>
<rect x="176.984" y="53.7695" width="6" height="6" fill="#E4F3FA"/>
<rect x="184.484" y="53.7695" width="6" height="6" fill="#E4F3FA"/>
<rect x="191.984" y="53.7695" width="6" height="6" fill="#E4F3FA"/>
<rect x="199.484" y="53.7695" width="6" height="6" fill="#E4F3FA"/>
<rect x="206.984" y="53.7695" width="6" height="6" fill="#E4F3FA"/>
<rect x="214.484" y="53.7695" width="6" height="6" fill="#E4F3FA"/>
<rect x="221.984" y="53.7695" width="6" height="6" fill="#E4F3FA"/>
<rect x="229.484" y="53.7695" width="6" height="6" fill="#E4F3FA"/>
<rect x="236.984" y="53.7695" width="6" height="6" fill="#E4F3FA"/>
<rect x="244.484" y="53.7695" width="6" height="6" fill="#E4F3FA"/>
<rect x="251.984" y="53.7695" width="6" height="6" fill="#E4F3FA"/>
<rect x="259.484" y="53.7695" width="6" height="6" fill="#E4F3FA"/>
<rect x="69.7017" y="38.7695" width="6" height="6" fill="#E4F3FA"/>
<rect x="77.2017" y="38.7695" width="6" height="6" fill="#E4F3FA"/>
<rect x="84.7017" y="38.7695" width="6" height="6" fill="#E4F3FA"/>
<rect x="92.2017" y="38.7695" width="6" height="6" fill="#E4F3FA"/>
<rect x="99.7017" y="38.7695" width="6" height="6" fill="#E4F3FA"/>
<rect x="107.202" y="38.7695" width="6" height="6" fill="#E4F3FA"/>
<rect x="114.702" y="38.7695" width="6" height="6" fill="#E4F3FA"/>
<rect x="122.202" y="38.7695" width="6" height="6" fill="#E4F3FA"/>
<rect x="129.702" y="38.7695" width="6" height="6" fill="#E4F3FA"/>
<rect x="137.202" y="38.7695" width="6" height="6" fill="#E4F3FA"/>
<rect x="144.702" y="38.7695" width="6" height="6" fill="#E4F3FA"/>
<rect x="152.202" y="38.7695" width="6" height="6" fill="#E4F3FA"/>
<rect x="69.7017" y="46.2695" width="6" height="6" fill="#E4F3FA"/>
<rect x="77.2017" y="46.2695" width="6" height="6" fill="#E4F3FA"/>
<rect x="84.7017" y="46.2695" width="6" height="6" fill="#E4F3FA"/>
<rect x="92.2017" y="46.2695" width="6" height="6" fill="#E4F3FA"/>
<rect x="99.7017" y="46.2695" width="6" height="6" fill="#E4F3FA"/>
<rect x="107.202" y="46.2695" width="6" height="6" fill="#E4F3FA"/>
<rect x="114.702" y="46.2695" width="6" height="6" fill="#E4F3FA"/>
<rect x="122.202" y="46.2695" width="6" height="6" fill="#E4F3FA"/>
<rect x="129.702" y="46.2695" width="6" height="6" fill="#E4F3FA"/>
<rect x="137.202" y="46.2695" width="6" height="6" fill="#E4F3FA"/>
<rect x="144.702" y="46.2695" width="6" height="6" fill="#E4F3FA"/>
<rect x="152.202" y="46.2695" width="6" height="6" fill="#E4F3FA"/>
<rect x="69.7017" y="53.7695" width="6" height="6" fill="#E4F3FA"/>
<rect x="77.2017" y="53.7695" width="6" height="6" fill="#E4F3FA"/>
<rect x="84.7017" y="53.7695" width="6" height="6" fill="#E4F3FA"/>
<rect x="92.2017" y="53.7695" width="6" height="6" fill="#E4F3FA"/>
<rect x="99.7017" y="53.7695" width="6" height="6" fill="#E4F3FA"/>
<rect x="107.202" y="53.7695" width="6" height="6" fill="#E4F3FA"/>
<rect x="114.702" y="53.7695" width="6" height="6" fill="#E4F3FA"/>
<rect x="122.202" y="53.7695" width="6" height="6" fill="#E4F3FA"/>
<rect x="129.702" y="53.7695" width="6" height="6" fill="#E4F3FA"/>
<rect x="137.202" y="53.7695" width="6" height="6" fill="#E4F3FA"/>
<rect x="144.702" y="53.7695" width="6" height="6" fill="#E4F3FA"/>
<rect x="152.202" y="53.7695" width="6" height="6" fill="#E4F3FA"/>
<path d="M33.7432 38.7696V28.7095H39.3097V38.7696H33.7432Z" fill="#E4F3FA"/>
</svg>
