<svg width="428" height="640" viewBox="0 0 428 640" fill="none" xmlns="http://www.w3.org/2000/svg">
<g filter="url(#filter0_d_1542_1518)">
<path fill-rule="evenodd" clip-rule="evenodd" d="M36.2746 37.395C34 41.8592 34 47.7032 34 59.3913V598L44.4348 598C44.4348 591.925 48.6394 587 53.8261 587C59.0128 587 63.2174 591.925 63.2174 598H71.5654C71.5654 591.925 75.7701 587 80.9567 587C86.1434 587 90.348 591.925 90.348 598H98.6958C98.6958 591.925 102.9 587 108.087 587C113.274 587 117.478 591.925 117.478 598H125.826C125.826 591.925 130.031 587 135.217 587C140.404 587 144.609 591.925 144.609 598H152.957C152.957 591.925 157.161 587 162.348 587C167.535 587 171.739 591.925 171.739 598H180.087C180.087 591.925 184.291 587 189.478 587C194.665 587 198.869 591.925 198.869 598H207.217C207.217 591.925 211.422 587 216.609 587C221.795 587 226 591.925 226 598H234.348C234.348 591.925 238.552 587 243.739 587C248.926 587 253.13 591.925 253.13 598H261.478C261.478 591.925 265.683 587 270.869 587C276.056 587 280.261 591.925 280.261 598H288.609C288.609 591.925 292.813 587 298 587C303.187 587 307.391 591.925 307.391 598H315.739C315.739 591.925 319.944 587 325.13 587C330.317 587 334.522 591.925 334.522 598H342.87C342.87 591.925 347.074 587 352.261 587C357.448 587 361.652 591.925 361.652 598H370C370 591.925 374.205 587 379.391 587C384.578 587 388.783 591.925 388.783 598L394 598V59.3913C394 47.7032 394 41.8592 391.725 37.395C389.725 33.4681 386.532 30.2755 382.605 28.2746C378.141 26 372.297 26 360.609 26H67.3913C55.7032 26 49.8592 26 45.395 28.2746C41.4681 30.2755 38.2755 33.4681 36.2746 37.395Z" fill="url(#paint0_linear_1542_1518)"/>
</g>
<defs>
<filter id="filter0_d_1542_1518" x="0.608696" y="0.956522" width="426.783" height="638.783" filterUnits="userSpaceOnUse" color-interpolation-filters="sRGB">
<feFlood flood-opacity="0" result="BackgroundImageFix"/>
<feColorMatrix in="SourceAlpha" type="matrix" values="0 0 0 0 0 0 0 0 0 0 0 0 0 0 0 0 0 0 127 0" result="hardAlpha"/>
<feOffset dy="8.34783"/>
<feGaussianBlur stdDeviation="16.6957"/>
<feComposite in2="hardAlpha" operator="out"/>
<feColorMatrix type="matrix" values="0 0 0 0 1 0 0 0 0 1 0 0 0 0 1 0 0 0 0.16 0"/>
<feBlend mode="normal" in2="BackgroundImageFix" result="effect1_dropShadow_1542_1518"/>
<feBlend mode="normal" in="SourceGraphic" in2="effect1_dropShadow_1542_1518" result="shape"/>
</filter>
<linearGradient id="paint0_linear_1542_1518" x1="248" y1="585" x2="236" y2="49" gradientUnits="userSpaceOnUse">
<stop stop-color="#FFE392"/>
<stop offset="1" stop-color="#FFE28C"/>
</linearGradient>
</defs>
</svg>
