<svg width="24" height="20" viewBox="0 0 24 20" fill="none" xmlns="http://www.w3.org/2000/svg">
<path d="M14 9L10 5L14 1" stroke="#A4A4A4"/>
<path d="M5.93782 8.5C5.14475 9.87363 4.84171 11.4759 5.07833 13.0443C5.31495 14.6127 6.07722 16.0542 7.24024 17.1327C8.40327 18.2112 9.8981 18.8628 11.4798 18.9806C13.0616 19.0985 14.6365 18.6757 15.9465 17.7814C17.2565 16.8872 18.224 15.5746 18.6905 14.0586C19.1569 12.5426 19.0947 10.9131 18.5139 9.43709C17.9332 7.96109 16.8684 6.72607 15.494 5.93436C14.1196 5.14265 12.517 4.84119 10.9489 5.07937" stroke="#A4A4A4" stroke-linecap="round"/>
<path d="M14.3096 11.3387L14.1147 12.0082H10.1822L10.3771 11.3387H14.3096ZM12.5468 16L10.3051 13.3812L10.3009 12.8557H11.3348C11.6343 12.8557 11.8815 12.8063 12.0764 12.7074C12.2742 12.6057 12.4225 12.4687 12.5214 12.2964C12.6202 12.124 12.6697 11.9305 12.6697 11.7158C12.6697 11.4757 12.6231 11.2652 12.5298 11.0844C12.4366 10.9008 12.2897 10.7581 12.0891 10.6564C11.8914 10.5519 11.6315 10.4996 11.3094 10.4996H10.1907L10.3899 9.83008H11.3094C11.801 9.83008 12.2064 9.90494 12.5256 10.0547C12.8477 10.2016 13.0878 10.4163 13.246 10.6988C13.4042 10.9813 13.4833 11.3231 13.4833 11.7243C13.4833 12.0689 13.4169 12.3783 13.2841 12.6523C13.1542 12.9235 12.9381 13.1368 12.6358 13.2922C12.3363 13.4476 11.9323 13.5253 11.4238 13.5253L13.5087 15.9491V16H12.5468ZM14.3096 9.83008L14.1147 10.4996H10.945L11.1399 9.83008H14.3096Z" fill="#A4A4A4"/>
</svg>
