<svg width="390" height="287" viewBox="0 0 390 287" fill="none" xmlns="http://www.w3.org/2000/svg">
<path d="M0 0H390V216.819C240.195 259.053 154.725 257.729 0 216.819V0Z" fill="#FFE2C3"/>
<path d="M29 138.077C29 124.656 38.4834 113.058 51.6754 110.594C166.595 89.1218 236.097 90.527 339.513 110.491C352.63 113.023 362 124.581 362 137.94V243.527C362 256.916 352.575 268.494 339.421 270.992C230.44 291.685 160.554 291.727 51.5677 270.998C38.4193 268.497 29 256.922 29 243.537V138.077Z" fill="url(#paint0_linear_1616_1583)"/>
<path d="M223 163.5C223 212.377 183.377 252 134.5 252C85.6228 252 46 212.377 46 163.5C46 114.623 85.6228 75 134.5 75C183.377 75 223 114.623 223 163.5ZM82.8227 163.5C82.8227 192.041 105.959 215.177 134.5 215.177C163.041 215.177 186.177 192.041 186.177 163.5C186.177 134.959 163.041 111.823 134.5 111.823C105.959 111.823 82.8227 134.959 82.8227 163.5Z" fill="#FF6E00" fill-opacity="0.03"/>
<path d="M223 163.5C223 212.377 183.377 252 134.5 252C85.6228 252 46 212.377 46 163.5C46 114.623 85.6228 75 134.5 75C183.377 75 223 114.623 223 163.5ZM82.8227 163.5C82.8227 192.041 105.959 215.177 134.5 215.177C163.041 215.177 186.177 192.041 186.177 163.5C186.177 134.959 163.041 111.823 134.5 111.823C105.959 111.823 82.8227 134.959 82.8227 163.5Z" fill="#FF6E00" fill-opacity="0.03"/>
<path d="M329 157.5C329 201.407 293.407 237 249.5 237C205.593 237 170 201.407 170 157.5C170 113.593 205.593 78 249.5 78C293.407 78 329 113.593 329 157.5ZM201.587 157.5C201.587 183.962 223.038 205.413 249.5 205.413C275.962 205.413 297.413 183.962 297.413 157.5C297.413 131.038 275.962 109.587 249.5 109.587C223.038 109.587 201.587 131.038 201.587 157.5Z" fill="#FF6E00" fill-opacity="0.03"/>
<defs>
<linearGradient id="paint0_linear_1616_1583" x1="195.5" y1="95" x2="195.5" y2="286.528" gradientUnits="userSpaceOnUse">
<stop stop-color="#FFE2C3"/>
<stop offset="1" stop-color="#EA7515"/>
</linearGradient>
</defs>
</svg>
